<svg fill="#d3cfcf" height="200px" width="200px" version="1.1" id="Layer_1" xmlns="http://www.w3.org/2000/svg" xmlns:xlink="http://www.w3.org/1999/xlink" viewBox="-51.2 -51.2 614.40 614.40" xml:space="preserve" stroke="#d3cfcf" stroke-width="18.432"><g id="SVGRepo_bgCarrier" stroke-width="0"></g><g id="SVGRepo_tracerCarrier" stroke-linecap="round" stroke-linejoin="round" stroke="#CCCCCC" stroke-width="1.024"></g><g id="SVGRepo_iconCarrier"> <g> <g> <circle cx="180.289" cy="332.256" r="8.17"></circle> </g> </g> <g> <g> <circle cx="138.894" cy="299.575" r="8.17"></circle> </g> </g> <g> <g> <path d="M503.83,114.383H264.17V57.192c0-3.143-1.802-6.007-4.636-7.366c-2.833-1.361-6.196-0.974-8.646,0.993L3.058,249.628 C1.124,251.178,0,253.522,0,256c0,2.478,1.124,4.823,3.058,6.373l247.83,198.808c1.478,1.186,3.288,1.797,5.113,1.797 c1.202,0,2.409-0.265,3.533-0.804c2.835-1.359,4.636-4.223,4.636-7.366v-57.192h99.404c4.513,0,8.17-3.658,8.17-8.17 c0-4.512-3.657-8.17-8.17-8.17H256c-4.512,0-8.17,3.658-8.17,8.17v48.334L21.227,256L247.83,74.221v48.333 c0,4.512,3.658,8.17,8.17,8.17h239.66v250.553h-99.404c-4.513,0-8.17,3.658-8.17,8.17c0,4.512,3.657,8.17,8.17,8.17H503.83 c4.513,0,8.17-3.658,8.17-8.17V122.554C512,118.041,508.343,114.383,503.83,114.383z"></path> </g> </g> </g></svg>