<svg version="1.1" id="Layer_1" xmlns="http://www.w3.org/2000/svg" xmlns:xlink="http://www.w3.org/1999/xlink" x="0px" y="0px"
	 viewBox="0 0 500 300" enable-background="new 0 0 500 300" xml:space="preserve">

<path fill="#FEFEFE" opacity="1.000000" stroke="none" 
	d="
M130.420471,133.645050 
	C129.626205,131.900146 129.022964,130.199860 129.013580,128.496307 
	C128.936630,114.514793 128.970169,100.532677 128.970169,85.979408 
	C117.662529,85.236595 106.670326,85.865616 95.795670,88.426697 
	C66.104019,95.419342 48.237377,116.829437 47.314899,148.092789 
	C47.004539,158.611206 47.891090,169.557571 50.563831,179.693039 
	C56.946388,203.896729 74.611534,216.451324 98.350403,220.768784 
	C107.617073,222.454117 117.210381,222.668747 126.670418,222.889740 
	C140.969681,223.223785 155.282501,222.976898 170.202652,222.976898 
	C170.202652,235.283569 170.295624,247.371994 170.045227,259.453308 
	C170.022552,260.547455 167.790314,262.528229 166.582626,262.529419 
	C133.829117,262.561768 100.878029,264.550903 69.226547,253.056396 
	C32.932110,239.875763 12.258880,214.094376 6.956817,175.980820 
	C3.677180,152.405350 4.508042,129.074341 13.264644,106.623581 
	C24.038147,79.001770 44.966824,62.604721 72.695488,53.980865 
	C90.842438,48.337002 109.541534,46.678478 128.395920,46.340878 
	C140.556686,46.123131 152.724701,46.337650 164.889008,46.272327 
	C168.105331,46.255051 170.303894,46.714512 170.287094,50.817467 
	C170.177261,77.645905 170.229660,104.474991 170.211670,131.303848 
	C170.211243,131.937775 170.008163,132.571564 169.816910,133.688171 
	C156.797974,133.688171 143.842346,133.688171 130.420471,133.645050 
z"/>
<path fill="#FDFDFD" opacity="1.000000" stroke="none" 
	d="
M214.798630,130.001877 
	C208.683426,130.001938 203.046860,130.001938 196.930878,130.001938 
	C196.930878,109.708977 196.930878,89.678345 196.930878,69.222000 
	C190.555969,69.222000 184.645279,69.222000 178.403290,69.222000 
	C178.403290,61.752739 178.403290,54.704384 178.403290,47.353329 
	C197.781479,47.353329 217.156067,47.353329 236.824402,47.353329 
	C236.824402,54.437096 236.824402,61.483257 236.824402,68.903961 
	C230.988693,68.903961 225.229538,68.903961 218.865921,68.903961 
	C218.865921,71.519699 218.865921,73.776512 218.865921,76.033325 
	C218.865875,92.676315 218.818451,109.319572 218.913147,125.962029 
	C218.928650,128.686020 218.702286,130.635284 214.798630,130.001877 
z"/>
<path fill="#FBFBFB" opacity="1.000000" stroke="none" 
	d="
M141.136292,143.967987 
	C163.195496,137.834747 182.378784,148.720734 187.127518,169.762817 
	C192.161530,192.068970 179.846954,211.937485 158.717758,215.599503 
	C140.306427,218.790482 123.961967,208.507919 118.869377,190.530258 
	C113.134369,170.284775 122.008919,151.422897 141.136292,143.967987 
M172.871231,169.987976 
	C170.183456,162.901749 165.691132,157.691177 157.997482,155.942581 
	C141.073288,152.096085 128.062881,166.624451 131.849808,185.103836 
	C134.120361,196.183640 141.914474,202.934631 152.542664,203.027283 
	C163.134628,203.119629 171.622345,196.502518 173.540451,185.544144 
	C174.371155,180.798279 173.275421,175.715195 172.871231,169.987976 
z"/>
<path fill="#FDFDFD" opacity="1.000000" stroke="none" 
	d="
M477.760681,102.286713 
	C477.760681,89.214790 477.760681,76.558571 477.760681,63.572304 
	C482.156372,63.572304 486.530457,63.572304 491.027985,63.572304 
	C491.027985,87.045616 491.027985,110.297775 491.027985,133.487900 
	C484.023499,135.257690 479.268982,133.816284 475.402954,127.058609 
	C468.754089,115.436691 460.926971,104.488838 452.703796,93.437080 
	C452.703796,106.768211 452.703796,120.099335 452.703796,133.711395 
	C447.889893,133.711395 443.652130,133.711395 439.141479,133.711395 
	C439.141479,110.492195 439.141479,87.252106 439.146362,64.011658 
	C447.227264,61.845493 449.006866,62.503609 453.284729,69.234367 
	C460.245880,80.186989 467.202087,91.142784 474.176483,102.086960 
	C475.035858,103.435493 475.994019,104.721107 477.760651,107.266823 
	C477.760651,104.814690 477.760651,103.758553 477.760681,102.286713 
z"/>
<path fill="#FBFBFB" opacity="1.000000" stroke="none" 
	d="
M246.971039,169.229324 
	C247.224213,174.620438 248.108246,179.672318 247.515137,184.544388 
	C245.176544,203.754990 234.198288,213.448349 212.243301,215.666092 
	C205.683594,216.328705 199.000366,215.768417 192.022278,215.768417 
	C192.022278,205.971375 192.022278,196.280304 192.022278,186.354248 
	C196.489243,186.354248 200.768494,186.354248 205.672058,186.354248 
	C205.672058,191.526047 205.672058,196.747589 205.672058,202.342331 
	C215.353790,202.530258 224.281464,201.804352 229.671249,193.398376 
	C235.291870,184.632416 235.384674,174.906540 230.231522,165.906128 
	C225.025391,156.813202 215.916702,155.576721 205.957977,155.867569 
	C205.957977,161.235214 205.957977,166.320709 205.957977,171.715790 
	C201.137299,171.715790 196.736832,171.715790 191.999435,171.715790 
	C191.999435,162.072784 191.999435,152.389206 191.999435,142.275375 
	C204.026657,142.065338 215.790955,141.490295 227.142227,145.667252 
	C238.049866,149.680939 244.485443,157.541428 246.971039,169.229324 
z"/>
<path fill="#FCFCFC" opacity="1.000000" stroke="none" 
	d="
M337.273804,216.005768 
	C333.734558,216.549026 332.075745,215.273117 330.843475,212.328064 
	C327.961365,205.439819 324.674255,198.721008 321.549927,191.934128 
	C318.732300,185.813507 318.731567,185.813843 311.161194,186.554596 
	C311.161194,196.091949 311.161194,205.683258 311.161194,215.637054 
	C306.383698,215.637054 302.005280,215.637054 297.304688,215.637054 
	C297.304688,201.586838 297.304688,187.520462 297.304688,172.731201 
	C304.430878,172.731201 311.664795,172.796585 318.896362,172.696884 
	C321.539703,172.660431 324.230957,172.479294 326.805237,171.923492 
	C330.510376,171.123550 332.422882,168.453583 332.603973,164.747971 
	C332.782654,161.091248 331.311493,158.109818 327.691772,156.931824 
	C325.375183,156.177933 322.836121,155.849823 320.388184,155.805313 
	C312.769562,155.666824 305.146881,155.754562 297.272644,155.754562 
	C297.272644,151.117432 297.272644,146.903641 297.272644,143.115204 
	C308.472046,143.115204 319.465637,142.298294 330.274261,143.361633 
	C339.714142,144.290314 344.994537,151.022339 346.392517,160.480240 
	C347.864380,170.437775 344.260559,178.160141 335.964539,182.809601 
	C335.252289,183.208786 334.517944,183.568573 333.303131,184.202927 
	C338.043091,194.596710 342.736053,204.887375 347.806519,216.005798 
	C343.883636,216.005798 340.805389,216.005798 337.273804,216.005768 
z"/>
<path fill="#FBFBFB" opacity="1.000000" stroke="none" 
	d="
M369.886230,102.131760 
	C378.355865,112.559120 374.860077,126.704063 362.381317,130.714935 
	C355.585510,132.899216 348.082092,132.882095 340.407623,133.924423 
	C340.407623,128.945007 340.407623,125.042992 340.407623,120.414551 
	C343.210327,120.414551 346.151917,120.573105 349.067841,120.367470 
	C351.690643,120.182503 354.738586,120.300125 356.764893,118.992126 
	C358.791687,117.683800 360.952484,114.746429 360.901337,112.573837 
	C360.850525,110.414749 358.493744,107.050110 356.486847,106.458817 
	C352.292267,105.222961 347.668182,105.301666 343.209717,105.142494 
	C338.056519,104.958534 332.891693,105.099701 327.362000,105.099701 
	C327.362000,91.637062 327.362000,78.275589 327.362000,63.536743 
	C338.341339,64.349113 349.384613,64.162743 359.985870,66.236206 
	C370.341156,68.261551 375.454285,77.424118 372.975830,87.514130 
	C371.957550,91.659828 368.697113,95.254791 366.456604,99.100266 
	C365.969177,98.923943 365.481750,98.747612 364.994354,98.571289 
	C366.536285,99.676003 368.078217,100.780716 369.886230,102.131760 
M358.725159,80.002014 
	C353.213715,74.858337 346.608704,77.365158 340.369873,76.809357 
	C340.369873,82.277451 340.369873,87.171562 340.369873,92.031639 
	C344.690063,92.031639 348.712280,92.374908 352.653137,91.954712 
	C359.293335,91.246689 361.470581,87.212296 358.725159,80.002014 
z"/>
<path fill="#FAFAFA" opacity="1.000000" stroke="none" 
	d="
M273.997559,155.759079 
	C270.857758,155.759079 268.209839,155.759079 265.249451,155.759079 
	C265.249451,161.213547 265.249451,166.439682 265.249451,172.121567 
	C274.891449,172.121567 284.473236,172.121567 294.476807,172.121567 
	C294.476807,176.747116 294.476807,180.932480 294.476807,185.553192 
	C284.810303,185.553192 275.215973,185.553192 265.279724,185.553192 
	C265.279724,191.186325 265.279724,196.403900 265.279724,202.000183 
	C271.897583,202.000183 278.494476,202.000183 285.486328,202.000183 
	C285.486328,206.726517 285.486328,211.093216 285.486328,215.740356 
	C274.114258,215.740356 262.726410,215.740356 251.066360,215.740356 
	C251.066360,191.314682 251.066360,167.078110 251.066360,142.491501 
	C262.558838,142.491501 273.940063,142.491501 285.605530,142.491501 
	C285.605530,146.818024 285.605530,151.035614 285.605530,155.759079 
	C281.738617,155.759079 278.114044,155.759079 273.997559,155.759079 
z"/>
<path fill="#FBFBFB" opacity="1.000000" stroke="none" 
	d="
M279.256592,76.869850 
	C278.332825,72.861328 277.887543,68.888687 277.476410,65.220734 
	C288.541046,65.220734 298.869965,64.416969 309.006897,65.466835 
	C317.616455,66.358528 322.705719,72.965485 323.843475,81.383179 
	C325.078552,90.521019 321.721344,97.630676 314.087891,102.033020 
	C313.379181,102.441727 312.657532,102.827965 311.561859,103.435287 
	C315.987274,113.149681 320.350922,122.728470 325.031403,133.002701 
	C320.491608,133.002701 316.698212,133.239716 312.965668,132.867233 
	C311.747711,132.745697 310.240997,131.255875 309.631317,130.015747 
	C306.483246,123.612564 303.585358,117.086449 300.596588,110.604874 
	C298.070282,105.126129 298.068115,105.127121 291.069580,105.395226 
	C291.069580,114.370995 291.069580,123.405212 291.069580,132.714355 
	C286.495789,132.714355 282.567413,132.714355 278.217407,132.714355 
	C278.217407,119.666702 278.217407,106.484642 278.217407,92.738754 
	C284.600006,92.738754 291.032654,92.769447 297.464752,92.721558 
	C299.619171,92.705513 301.793854,92.639626 303.921204,92.332611 
	C308.260590,91.706345 310.936005,89.308998 310.893402,84.708267 
	C310.850250,80.048279 307.814484,77.687561 303.685272,77.193291 
	C299.413910,76.682014 295.046539,76.956093 290.720886,76.920555 
	C287.059174,76.890472 283.397034,76.908821 279.256592,76.869850 
z"/>
<path fill="#FBFBFB" opacity="1.000000" stroke="none" 
	d="
M275.070496,85.000229 
	C275.070435,92.661667 274.712769,99.844467 275.138184,106.980591 
	C276.355377,127.398163 259.891968,134.754730 244.832092,132.718536 
	C231.165543,130.870728 223.741837,122.045715 223.678711,108.215591 
	C223.631683,97.910095 223.669449,87.604202 223.669449,77.080811 
	C227.995560,77.080811 231.943970,77.080811 236.681656,77.080811 
	C236.681656,79.671410 236.681046,82.247749 236.681778,84.824097 
	C236.684036,92.818298 236.545639,100.815781 236.730667,108.805756 
	C236.902267,116.215508 242.050629,120.452438 250.123047,120.208473 
	C257.937073,119.972321 262.027130,116.052124 262.047729,108.610893 
	C262.087799,94.131287 262.059479,79.651497 262.059479,64.718643 
	C266.335327,64.718643 270.371246,64.718643 275.070496,64.718643 
	C275.070496,71.309753 275.070496,77.905014 275.070496,85.000229 
z"/>
<path fill="#FBFBFB" opacity="1.000000" stroke="none" 
	d="
M408.426819,74.525131 
	C416.036987,94.043442 423.468628,113.216278 431.138367,133.003342 
	C426.870819,133.003342 423.215027,133.300308 419.655792,132.844025 
	C418.391510,132.681961 416.826660,130.887329 416.311432,129.499283 
	C412.728149,119.845413 409.393066,110.099525 405.956848,100.390755 
	C405.366333,98.722267 404.673065,97.090149 403.714722,94.643166 
	C399.614960,106.327194 395.619904,117.028549 392.169342,127.902679 
	C390.890503,131.932770 389.076385,133.643600 384.857239,133.068420 
	C382.414093,132.735382 379.888428,133.007904 376.547302,133.007904 
	C385.524841,109.830017 394.300232,87.174133 403.075592,64.518250 
	C403.529510,64.451347 403.983459,64.384445 404.437378,64.317543 
	C405.707703,67.604912 406.978027,70.892281 408.426819,74.525131 
z"/>


<path fill="#F7F7F7" opacity="1.000000" stroke="none" 
	d="
M152.206940,172.290100 
	C157.070465,172.687866 159.719147,175.194672 159.582428,179.664490 
	C159.477951,183.080383 157.435852,185.582703 153.760513,186.056580 
	C149.944839,186.548569 147.274384,184.848892 146.125427,181.213608 
	C144.869110,177.238693 146.828659,174.352829 152.206940,172.290100 
z"/>
</svg>