<svg version="1.1" id="Layer_1" xmlns="http://www.w3.org/2000/svg" xmlns:xlink="http://www.w3.org/1999/xlink" x="0px" y="0px"
	 viewBox="0 0 500 500" enable-background="new 0 0 500 500" xml:space="preserve">


<path fill="#FEFEFE" opacity="1.000000" stroke="none" 
	d="
M466.885468,99.310638 
	C466.904907,99.653389 467.078247,99.876610 467.626648,100.017349 
	C468.252045,105.063759 468.656311,110.073105 469.061890,116.004028 
	C469.063202,154.246094 469.063202,191.566574 469.063202,228.998825 
	C449.195923,228.998825 430.080353,228.955994 410.965454,229.052582 
	C408.553406,229.064774 407.197968,228.495880 407.291534,225.497711 
	C407.426483,202.788742 407.426483,180.528152 407.426483,158.026291 
	C405.406525,157.839600 403.785187,157.604370 402.157990,157.552551 
	C385.427277,157.019638 368.856689,158.390518 352.754791,163.061905 
	C321.509827,172.126480 299.802704,191.382812 290.299072,223.106308 
	C284.856995,241.272415 284.726105,259.842804 286.761261,278.516327 
	C288.649811,295.844177 293.650635,312.135376 304.550079,325.960419 
	C324.499969,351.265228 352.163086,359.839294 383.382324,361.242249 
	C401.175507,361.474091 418.588776,361.541748 436.002045,361.609436 
	C443.028198,361.674133 450.054352,361.738831 457.540100,361.706390 
	C461.460938,361.609253 464.922150,361.609253 469.061157,361.609253 
	C469.061157,369.322723 469.061157,376.698853 469.061890,384.999939 
	C469.056580,394.725433 469.048981,403.525970 469.044800,412.326508 
	C469.040985,420.461914 469.042633,420.461914 460.540039,420.961670 
	C453.720032,420.929474 447.359619,420.993988 440.539337,420.962158 
	C432.719421,420.930145 425.359406,420.994476 417.539490,420.962341 
	C407.772217,420.910156 398.423401,421.522797 389.168488,420.847961 
	C378.719543,420.086029 368.214447,418.815186 357.986511,416.599182 
	C342.451752,413.233429 326.543518,410.353119 311.876801,404.536285 
	C294.026581,397.456879 277.337280,387.744110 263.814178,373.193756 
	C250.002960,358.333405 239.489304,341.760223 233.032425,322.587494 
	C223.670212,294.787750 222.321671,266.132904 224.606796,237.223282 
	C226.540924,212.754059 232.787277,189.490326 245.545303,168.192688 
	C253.793396,154.423737 264.703400,143.174591 277.403076,133.082260 
	C290.450134,123.738243 304.382874,116.881905 319.250214,111.869354 
	C347.595947,102.312515 376.919922,99.337898 406.618378,99.021721 
	C422.411011,98.853577 438.205780,98.888634 454.456390,98.907341 
	C458.903931,99.092026 462.894714,99.201332 466.885468,99.310638 
z"/>
<path fill="#FEFEFE" opacity="1.000000" stroke="none" 
	d="
M20.653479,102.047287 
	C22.204058,100.750000 23.670959,99.246483 25.241947,99.128464 
	C29.830761,98.783730 34.461113,98.991905 39.998589,98.982742 
	C45.614754,98.932190 50.307518,98.882278 55.463631,98.907349 
	C77.364754,98.988518 98.802567,99.019142 120.240303,98.994659 
	C146.493423,98.964668 172.746521,98.888535 199.455963,98.907768 
	C202.707306,98.988441 205.508499,99.112267 208.295685,98.967163 
	C211.370010,98.807106 213.323013,100.020966 214.078247,103.464371 
	C214.059509,114.620064 214.110199,125.311630 214.086029,136.464493 
	C214.005646,140.422607 214.009933,143.919479 213.992401,147.416245 
	C213.962769,153.322327 213.333862,153.988831 207.359375,153.993683 
	C183.380920,154.013153 159.402420,153.978012 135.423981,154.005478 
	C110.616882,154.033890 85.809830,154.111420 60.539474,154.090912 
	C52.717548,154.065338 45.358910,154.116333 37.555367,154.091919 
	C34.407070,154.066803 31.703674,154.117081 28.572266,154.091934 
	C20.461222,153.928436 20.504257,153.928192 20.459600,146.202042 
	C20.428379,140.800446 20.259338,135.399658 20.151854,129.998505 
	C20.307020,120.823685 20.462189,111.648872 20.653479,102.047287 
z"/>


<path fill="#FEFEFE" opacity="1.000000" stroke="none" 
	d="
M183.410278,97.307587 
	C183.311707,97.427063 183.636139,97.538658 183.671539,97.482452 
	C183.706940,97.426254 183.508835,97.188110 183.410278,97.307587 
z"/>
<path fill="#FFFFFF" opacity="1.000000" stroke="none" 
	d="
M86.828842,410.445496 
	C86.806915,408.172760 86.923866,406.346344 86.924179,404.519897 
	C86.934662,343.246094 86.918381,281.972290 87.018486,220.698654 
	C87.021194,219.040131 85.276787,216.048676 89.561356,215.710236 
	C109.124329,215.608673 128.245178,215.608673 148.009705,215.608673 
	C148.009705,274.036591 148.009705,332.054535 148.085663,390.535614 
	C148.111099,396.357300 148.060562,401.715820 148.085831,407.536499 
	C148.105057,409.821777 148.009125,411.644684 147.999039,413.468048 
	C147.963623,419.869965 147.048386,420.815735 140.423447,420.827026 
	C124.640144,420.853943 108.854492,420.686523 93.074829,420.927521 
	C88.442833,420.998260 86.177841,419.804993 86.902657,414.874603 
	C87.093773,413.574585 86.919708,412.220886 86.828842,410.445496 
z"/>
</svg>